<?xml version="1.0" encoding="utf-8"?>
<!-- Generator: Adobe Illustrator 24.0.0, SVG Export Plug-In . SVG Version: 6.00 Build 0)  -->
<svg version="1.1" id="Layer_1" xmlns="http://www.w3.org/2000/svg" xmlns:xlink="http://www.w3.org/1999/xlink" x="0px" y="0px"
	 viewBox="0 0 482.7 422" style="enable-background:new 0 0 482.7 422;" xml:space="preserve">
<style type="text/css">
	.st0{fill:#FBBB17;}
</style>
<title>logo3</title>
<g id="Logo_McDonalds">
	<path class="st0" d="M314.4,65.1c-0.5,0-1.1,0-1.6,0c-28.9,1.2-54.5,40-71.5,100.1c-17-60.1-42.6-98.9-71.5-100.1
		c-0.5,0-1.1,0-1.6,0c-51.8,0-93.8,130.6-93.8,291.8h41.7c0-149.7,23.4-271,52.1-271s52.1,112,52.1,250.2h0.3H262h0.3
		c0-138.1,23.4-250.2,52.1-250.2s52.1,121.3,52.1,271h41.7C408.2,195.7,366.2,65.1,314.4,65.1z"/>
	<path class="st0" d="M429,331c-7.2,0-13,5.8-13,13c0,7.2,5.8,13,13,13c7.2,0,13-5.8,13-13C442,336.8,436.2,331,429,331z M429,354.5
		c-5.8,0-10.6-4.7-10.6-10.6s4.7-10.6,10.6-10.6c5.8,0,10.6,4.7,10.6,10.6S434.8,354.5,429,354.5z"/>
	<path class="st0" d="M431.9,344.9c-0.2-0.1-0.4-0.3-0.6-0.4c0.4-0.2,0.8-0.4,1.1-0.6c0.3-0.2,0.6-0.5,0.8-0.8
		c0.2-0.3,0.4-0.7,0.5-1c0.1-0.4,0.2-0.8,0.2-1.2c0-0.5-0.1-1-0.3-1.5c-0.2-0.5-0.5-0.9-0.9-1.2c-0.4-0.3-0.9-0.6-1.6-0.8
		c-0.7-0.2-1.4-0.3-2.4-0.3h-4.2v12.8h3v-4.7h0.8c0.2,0,0.4,0,0.5,0.1c0.1,0.1,0.2,0.2,0.3,0.4l2.1,3.7c0.2,0.4,0.6,0.6,1.1,0.6h2.7
		l-2.7-4.5C432.2,345.3,432,345.1,431.9,344.9z M430.9,341.9c-0.1,0.2-0.2,0.5-0.4,0.6c-0.2,0.2-0.4,0.3-0.7,0.4
		c-0.3,0.1-0.6,0.2-1,0.2h-1.2v-3.8h1.2c0.8,0,1.3,0.2,1.7,0.5c0.4,0.3,0.5,0.8,0.5,1.3C431,341.4,430.9,341.7,430.9,341.9z"/>
</g>
</svg>
